<svg width="24" height="24" viewBox="0 0 24 24" fill="none" xmlns="http://www.w3.org/2000/svg">
<g clip-path="url(#clip0_172_23)">
<path d="M13.1589 1.24457L15.8658 6.72943C16.054 7.11091 16.418 7.37524 16.839 7.43631L22.8921 8.31591C23.9524 8.4701 24.3754 9.77273 23.6085 10.5202L19.2285 14.7895C18.9241 15.0864 18.7849 15.5144 18.857 15.9334L19.8908 21.962C20.072 23.0178 18.9636 23.8228 18.0155 23.3247L12.6017 20.4786C12.2252 20.2809 11.7752 20.2809 11.3987 20.4786L5.98492 23.3247C5.03674 23.8233 3.92835 23.0178 4.10958 21.962L5.14337 15.9334C5.21546 15.5144 5.07628 15.0864 4.7719 14.7895L0.391929 10.5202C-0.37503 9.77223 0.0479991 8.4696 1.10832 8.31591L7.16139 7.43631C7.58242 7.37524 7.94637 7.11091 8.13461 6.72943L10.8415 1.24457C11.3151 0.283873 12.6848 0.283873 13.1589 1.24457Z" fill="#ED8A19"/>
</g>
<defs>
<clipPath id="clip0_172_23">
<rect width="24" height="24" fill="white"/>
</clipPath>
</defs>
</svg>
